# xmcd
# 
# Track frame offsets:
#     150
#     14637
#     30469
#     42627
#     53572
#     69631
#     84564
#     100668
#     116100
#     131416
#     143238
#     154907
#     169037
#     180988
# 
# Disc length: 2642
# 
# Revision: 0
# Processed by: cddbd v1.5.2PL0 Copyright (c) Steve Scherf et al.
# Submitted via: fre:ac v1.0.27
# 
DISCID=b90a500e
DTITLE=Joana Amendoeira - Aquela Rua
DYEAR=2000
DGENRE=Folk
TTITLE0=Aquela Rua
TTITLE1=Fadista Louco
TTITLE2=É Assim Que A Vida Se Revela
TTITLE3=Dá-me O Braço, Ainda Daí
TTITLE4=Poeta
TTITLE5=Se O Fado Não Tem Idade
TTITLE6=Havemos De Ir A Viana
TTITLE7=Fado Cor Do Sentimento
TTITLE8=Lisboa Das Mil Janelas
TTITLE9=Eu Fecho Os Olhos P'ra Dar
TTITLE10=Fria Claridade
TTITLE11=Madrugada De Alfama
TTITLE12=Amiga
TTITLE13=Vou-te Amar Até Ao Fim
EXTD=
EXTT0=
EXTT1=
EXTT2=
EXTT3=
EXTT4=
EXTT5=
EXTT6=
EXTT7=
EXTT8=
EXTT9=
EXTT10=
EXTT11=
EXTT12=
EXTT13=
PLAYORDER=
